<svg class="w-10 h-10" xmlns="http://www.w3.org/2000/svg" viewBox="0 0 504 504"><path fill="#10927a" d="M6 334h496v100H6z"/><path d="M199.2 245.2c-4.4-13.6-7.6-28.8-7.6-45.2 0-52.4 28.4-95.2 63.2-95.2S318 147.2 318 200c0 52.4-28.4 95.2-63.2 95.2-15.6 0-30-8.8-41.2-23.2 0 0-11.2-16.4-14.4-26.8z" fill="#f4efef"/><path d="M2 70v268h496V70H2z" fill="#54b265"/><path d="M470 144.4c0-20-15.2-38.4-36.8-38.4H86.4c-21.2 0-48.8 18.4-48.8 38.4v115.2c0 7.6 2 18 7.6 24 2 2 4.8 5.2 7.2 7.2 4.8 3.6 10.4 5.6 16 7.6s12-.4 17.6-.4h346.8c21.2 0 36.8-18.4 36.8-38.4.4 0 .4-115.2.4-115.2z" fill="#61c2ab"/><g fill="#e8e3e3"><circle cx="396.8" cy="199.6" r="21.2"/><circle cx="118" cy="199.6" r="21.2"/></g><path d="M312.8 245.6c-2-15.2-21.6-19.6-41.6-21.6v-13.2c8-6.8 13.6-20.4 13.6-34 0-23.6-10.8-30-26-30s-28.8 6.4-28.8 30c0 13.6 5.2 27.6 9.2 34V224c-16 2.4-40.8 6-40.8 22.4 4 10.4 15.2 29.2 15.2 29.2 11.2 14.4 30.4 19.2 46 19.2 23.6 0 42-19.2 52.8-47.6l.4-1.6z" fill="#aeb1b4"/><path d="M500 340H4c-2.4 0-4-1.6-4-4V68c0-2.4 1.6-4 4-4h496c2.4 0 4 1.6 4 4v268c0 2.4-1.6 4-4 4zM8 332h488V72H8v260z"/><path d="M430.8 308h-354c-22.8 0-41.2-18.4-41.2-41.2v-126c0-22.8 18.4-41.2 41.2-41.2h354c22.8 0 41.2 18.4 41.2 41.2v126c0 22.8-18.4 41.2-41.2 41.2zM77.2 108C58.8 108 44 122.8 44 141.2v126c0 18.4 14.8 33.2 33.2 33.2h354c18.4 0 33.2-14.8 33.2-33.2v-126c0-18.4-14.8-33.2-33.2-33.2h-354z"/><path d="M256.4 302.4c-39.6 0-71.6-46.4-71.6-103.2 0-55.2 30-95.2 71.6-95.2 17.6 0 34.4 1.2 47.2 17.6 1.2 1.6 1.2 4.4-.8 5.6-1.6 1.2-4.4 1.2-5.6-.8-10.8-13.6-24.4-14.4-40.8-14.4-36.8 0-63.6 36.8-63.6 87.2 0 52.4 28.4 95.2 63.6 95.2s63.6-42.8 63.6-95.2c0-16-2.8-32-8-45.6-.8-2 .4-4.4 2.4-5.2 2-.8 4.4.4 5.2 2.4 5.6 14.8 8.4 31.6 8.4 48.4 0 56.8-32 103.2-71.6 103.2z"/><path d="M314 250.4c-2.4 0-4-1.6-4-4 0-12-16.4-15.6-35.2-18l-3.6-.4c-2-.4-3.6-2-3.6-4v-13.6c0-1.2.4-2.4 1.2-3.2 6-5.2 9.2-16.4 9.2-32.4 0-24-11.2-27.6-23.2-27.6-17.6 0-25.6 8.4-25.6 27.6 0 12.4 5.2 26 9.6 33.6.4.8.4 1.2.4 2V224c0 2-1.6 3.6-3.6 4l-2.4.4c-18.4 2.8-32.8 5.6-32.8 18.4 0 2.4-1.6 4-4 4s-4-1.6-4-4c0-20 22.8-23.6 38.8-26v-9.2c-2.4-4.8-10.4-20-10.4-36.8 0-23.2 11.6-35.6 33.6-35.6 20.8 0 31.2 11.6 31.2 35.6 0 17.6-3.6 30.4-10.4 37.2v8.4c16.8 2.4 42 6 42 26 .8 2.4-.8 4-3.2 4zM395.6 227.2c-15.6 0-28-12.8-28-28 0-15.6 12.8-28 28-28 2.4 0 4 1.6 4 4s-1.6 4-4 4c-11.2 0-20 9.2-20 20 0 11.2 9.2 20 20 20 11.2 0 20-9.2 20-20 0-2.4 1.6-4 4-4s4 1.6 4 4c.4 15.2-12.4 28-28 28zM117.6 227.2c-15.6 0-28-12.8-28-28 0-15.6 12.8-28 28-28 2.4 0 4 1.6 4 4s-1.6 4-4 4c-11.2 0-20 9.2-20 20 0 11.2 9.2 20 20 20 11.2 0 20-9.2 20-20 0-2.4 1.6-4 4-4s4 1.6 4 4c.4 15.2-12.4 28-28 28z"/><path d="M500 440H4c-2.4 0-4-1.6-4-4V158c0-2.4 1.6-4 4-4s4 1.6 4 4v274h488V158c0-2.4 1.6-4 4-4s4 1.6 4 4v278c0 2.4-1.6 4-4 4z"/><path d="M478 360H6c-2.4 0-4-1.6-4-4s1.6-4 4-4h472c2.4 0 4 1.6 4 4s-1.6 4-4 4zM478 380H6c-2.4 0-4-1.6-4-4s1.6-4 4-4h472c2.4 0 4 1.6 4 4s-1.6 4-4 4zM478 400H6c-2.4 0-4-1.6-4-4s1.6-4 4-4h472c2.4 0 4 1.6 4 4s-1.6 4-4 4zM478 420H6c-2.4 0-4-1.6-4-4s1.6-4 4-4h472c2.4 0 4 1.6 4 4s-1.6 4-4 4z"/></svg>